<?xml version="1.0" standalone="no"?>
<!DOCTYPE svg PUBLIC "-//W3C//DTD SVG 20010904//EN"
 "http://www.w3.org/TR/2001/REC-SVG-20010904/DTD/svg10.dtd">
<svg version="1.0" xmlns="http://www.w3.org/2000/svg"
 width="800.000000pt" height="480.000000pt" viewBox="0 0 800.000000 480.000000"
 preserveAspectRatio="xMidYMid meet">
<metadata>
Created by potrace 1.11, written by Peter Selinger 2001-2013
</metadata>
<g transform="translate(0.000000,480.000000) scale(0.100000,-0.100000)"
fill="#000000" stroke="none">
<path d="M1937 4522 c-24 -26 -22 -94 2 -116 11 -10 30 -16 43 -15 13 2 28 0
35 -4 6 -4 14 -3 17 2 4 5 2 12 -3 16 -7 4 -6 14 1 30 30 67 -48 139 -95 87z"/>
<path d="M2504 4524 c4 -11 14 -45 23 -76 9 -32 22 -58 29 -58 7 0 21 26 30
58 10 31 21 61 24 65 4 4 13 -19 20 -53 19 -91 35 -94 54 -8 l12 53 13 -57 c7
-33 18 -58 25 -58 7 0 18 27 25 65 7 36 17 68 22 71 5 3 16 -10 25 -30 16 -33
16 -36 -5 -70 -17 -27 -19 -36 -8 -36 7 0 19 12 26 27 12 27 13 27 27 8 8 -10
14 -22 14 -27 0 -4 7 -8 16 -8 13 0 12 6 -7 39 -21 38 -21 39 -3 70 10 17 21
31 24 31 13 0 40 -72 40 -105 0 -24 5 -35 15 -35 11 0 15 11 15 35 0 20 9 54
20 75 11 22 16 40 10 40 -5 0 -17 -15 -26 -32 l-17 -33 -15 33 c-21 43 -63 45
-81 5 -12 -27 -13 -27 -27 -8 -8 10 -14 23 -14 28 0 4 -12 7 -27 5 -24 -3 -28
-9 -38 -53 -12 -52 -16 -49 -30 23 -9 44 -32 41 -40 -6 -11 -64 -22 -69 -30
-13 -6 45 -10 51 -30 51 -20 0 -26 -9 -41 -57 l-17 -58 -16 54 c-9 30 -23 57
-30 59 -10 3 -12 0 -7 -14z"/>
<path d="M2968 4320 c-51 -39 -41 -121 17 -140 33 -11 81 -5 91 11 3 5 -14 6
-39 3 -53 -8 -77 11 -77 60 0 39 26 66 63 66 32 0 62 -39 52 -70 -11 -34 -25
-23 -25 20 0 36 -3 40 -25 40 -35 0 -62 -42 -47 -75 12 -26 36 -33 47 -15 5 8
11 7 21 -1 11 -9 19 -8 34 6 27 24 25 61 -5 90 -30 30 -73 32 -107 5z"/>
<path d="M1850 2856 c0 -30 -2 -33 -25 -28 -37 7 -65 -23 -65 -69 0 -50 19
-67 75 -67 l45 1 0 99 c0 80 -3 98 -15 98 -10 0 -15 -10 -15 -34z"/>
<path d="M2840 2856 c0 -30 -2 -33 -25 -28 -37 7 -65 -23 -65 -69 0 -50 19
-67 75 -67 l45 1 0 99 c0 80 -3 98 -15 98 -10 0 -15 -10 -15 -34z"/>
<path d="M6323 2823 c-7 -2 -17 -20 -23 -38 -9 -27 -8 -41 2 -62 12 -24 20
-28 51 -27 40 1 46 -6 22 -30 -11 -10 -26 -13 -45 -9 -37 7 -41 -14 -5 -23 39
-10 75 4 85 32 6 14 10 56 10 93 l0 68 -42 0 c-24 0 -48 -2 -55 -4z"/>
<path d="M740 2345 l0 -145 25 0 c24 0 25 2 25 74 0 65 3 77 22 90 15 11 26
12 40 5 15 -8 18 -22 18 -89 0 -79 0 -80 26 -80 l26 0 -3 84 c-3 65 -8 89 -23
105 -21 23 -56 27 -87 11 -18 -10 -19 -7 -19 40 0 47 -2 50 -25 50 l-25 0 0
-145z"/>
<path d="M1630 2345 l0 -145 25 0 c24 0 25 2 25 74 0 65 3 77 22 90 15 11 26
12 40 5 15 -8 18 -22 18 -89 0 -79 0 -80 26 -80 l26 0 -3 84 c-3 65 -8 89 -23
105 -21 23 -56 27 -87 11 -18 -10 -19 -7 -19 40 0 47 -2 50 -25 50 l-25 0 0
-145z"/>
<path d="M2110 2345 l0 -145 25 0 c24 0 25 2 25 74 0 65 3 77 22 90 15 11 26
12 40 5 15 -8 18 -22 18 -89 0 -79 0 -80 26 -80 l26 0 -3 84 c-3 65 -8 89 -23
105 -21 23 -56 27 -87 11 -18 -10 -19 -7 -19 40 0 47 -2 50 -25 50 l-25 0 0
-145z"/>
<path d="M2530 2440 c0 -47 -1 -50 -19 -40 -54 28 -110 -10 -118 -81 -10 -85
41 -137 109 -111 16 6 28 6 28 1 0 -5 9 -9 20 -9 19 0 20 7 20 145 0 138 -1
145 -20 145 -17 0 -20 -7 -20 -50z"/>
<path d="M4030 2440 c0 -47 -1 -50 -19 -40 -54 28 -110 -10 -118 -81 -10 -85
41 -137 109 -111 16 6 28 6 28 1 0 -5 9 -9 20 -9 19 0 20 7 20 145 0 138 -1
145 -20 145 -17 0 -20 -7 -20 -50z"/>
<path d="M7220 2345 l0 -145 24 0 c23 0 25 5 28 48 l3 47 33 -47 c24 -35 40
-48 57 -48 14 0 25 3 25 6 0 3 -20 31 -46 61 l-45 56 43 44 c40 40 41 43 18
43 -14 0 -38 -14 -57 -32 l-33 -32 0 72 c0 70 -1 72 -25 72 l-25 0 0 -145z"/>
<path d="M500 2460 c0 -17 7 -20 45 -20 l45 0 0 -120 c0 -113 1 -120 20 -120
19 0 20 7 20 120 l0 120 45 0 c38 0 45 3 45 20 0 19 -7 20 -110 20 -103 0
-110 -1 -110 -20z"/>
<path d="M1150 2430 c0 -11 -7 -20 -15 -20 -8 0 -15 -7 -15 -15 0 -8 7 -15 15
-15 12 0 15 -15 15 -74 0 -95 24 -123 84 -100 25 10 19 34 -9 34 -24 0 -25 2
-25 70 0 68 1 70 25 70 16 0 25 6 25 15 0 9 -9 15 -25 15 -18 0 -25 5 -25 20
0 15 -7 20 -25 20 -18 0 -25 -5 -25 -20z"/>
<path d="M3700 2430 c0 -11 -7 -20 -15 -20 -8 0 -15 -7 -15 -15 0 -8 7 -15 15
-15 12 0 15 -15 15 -74 0 -95 24 -123 84 -100 25 10 19 34 -9 34 -24 0 -25 2
-25 70 0 68 1 70 25 70 16 0 25 6 25 15 0 9 -9 15 -25 15 -18 0 -25 5 -25 20
0 15 -7 20 -25 20 -18 0 -25 -5 -25 -20z"/>
<path d="M4490 2430 c0 -11 -7 -20 -15 -20 -8 0 -15 -7 -15 -15 0 -8 7 -15 15
-15 12 0 15 -15 15 -74 0 -95 24 -123 84 -100 25 10 19 34 -9 34 -24 0 -25 2
-25 70 0 68 1 70 25 70 16 0 25 6 25 15 0 9 -9 15 -25 15 -18 0 -25 5 -25 20
0 15 -7 20 -25 20 -18 0 -25 -5 -25 -20z"/>
<path d="M983 2400 c-14 -6 -23 -18 -23 -30 0 -18 3 -19 20 -10 28 15 75 9 75
-10 0 -9 -14 -17 -37 -21 -48 -8 -78 -34 -78 -70 0 -50 51 -75 101 -49 13 7
19 7 19 0 0 -5 12 -10 26 -10 l27 0 -6 86 c-3 62 -10 90 -22 105 -19 20 -64
24 -102 9z"/>
<path d="M1340 2398 c0 -7 11 -53 23 -103 19 -75 27 -91 44 -93 18 -3 24 6 37
55 29 101 30 101 50 19 17 -66 22 -76 41 -76 20 0 25 10 44 88 12 48 24 95 27
105 4 13 0 17 -19 17 -22 0 -25 -6 -38 -77 l-14 -78 -20 75 c-16 62 -24 76
-42 78 -18 3 -24 -5 -38 -55 -23 -83 -27 -92 -32 -68 -2 11 -9 44 -14 73 -8
41 -14 52 -30 52 -10 0 -19 -6 -19 -12z"/>
<path d="M1974 2400 c-54 -22 -73 -113 -34 -163 23 -28 74 -43 115 -33 19 5
25 13 25 33 0 21 -3 24 -12 15 -17 -17 -73 -15 -89 4 -16 19 -15 79 1 99 15
18 71 20 88 3 9 -9 12 -7 12 10 0 36 -55 53 -106 32z"/>
<path d="M2629 2381 c-24 -24 -29 -38 -29 -76 0 -38 5 -52 29 -76 48 -47 116
-38 146 21 56 108 -62 214 -146 131z"/>
<path d="M2858 2394 c-17 -9 -32 -28 -39 -53 -21 -70 10 -127 73 -138 48 -7
98 13 98 39 0 15 -4 18 -17 13 -59 -26 -113 -13 -113 26 0 17 8 19 71 19 l71
0 -7 33 c-13 65 -77 94 -137 61z"/>
<path d="M3042 2394 c-43 -30 -25 -72 46 -108 18 -10 31 -23 29 -29 -4 -13
-62 -15 -89 -3 -14 6 -18 3 -18 -13 0 -38 85 -55 128 -25 31 22 30 69 -3 89
-83 50 -78 46 -62 62 14 14 19 14 48 -1 40 -20 39 -20 39 4 0 37 -77 53 -118
24z"/>
<path d="M3270 2305 l0 -105 25 0 c24 0 25 2 25 74 0 65 3 77 22 90 15 11 26
12 40 5 15 -8 18 -22 18 -89 0 -79 0 -80 26 -80 l26 0 -3 84 c-3 65 -8 89 -23
105 -21 23 -56 27 -87 11 -13 -7 -19 -7 -19 0 0 5 -11 10 -25 10 l-25 0 0
-105z"/>
<path d="M3499 2381 c-24 -24 -29 -38 -29 -76 0 -38 5 -52 29 -76 48 -47 116
-38 146 21 56 108 -62 214 -146 131z"/>
<path d="M4148 2394 c-17 -9 -32 -28 -39 -53 -21 -70 10 -127 73 -138 48 -7
98 13 98 39 0 15 -4 18 -17 13 -59 -26 -113 -13 -113 26 0 17 8 19 71 19 l71
0 -7 33 c-13 65 -77 94 -137 61z"/>
<path d="M4332 2394 c-43 -30 -25 -72 46 -108 18 -10 31 -23 29 -29 -4 -13
-62 -15 -89 -3 -14 6 -18 3 -18 -13 0 -38 85 -55 128 -25 31 22 30 69 -3 89
-83 50 -78 46 -62 62 14 14 19 14 48 -1 40 -20 39 -20 39 4 0 37 -77 53 -118
24z"/>
<path d="M4759 2381 c-24 -24 -29 -38 -29 -76 0 -38 5 -52 29 -76 48 -47 116
-38 146 21 56 108 -62 214 -146 131z"/>
<path d="M4950 2360 c11 -27 29 -72 40 -100 24 -60 13 -100 -27 -100 -16 0
-23 -6 -23 -20 0 -26 39 -27 69 -2 17 14 111 238 111 265 0 5 -10 7 -22 5 -17
-2 -26 -16 -42 -65 -11 -35 -23 -63 -27 -63 -4 0 -17 29 -29 65 -19 56 -25 65
-46 65 l-24 0 20 -50z"/>
<path d="M5220 2305 l0 -105 25 0 c24 0 25 2 25 74 0 66 3 77 22 90 36 26 48
5 48 -85 0 -72 2 -79 20 -79 18 0 20 7 20 59 0 68 11 106 34 114 31 12 46 -20
46 -99 0 -67 2 -74 20 -74 18 0 20 7 20 85 0 72 -3 88 -20 105 -23 23 -58 26
-85 6 -16 -12 -22 -12 -43 2 -19 12 -30 13 -53 5 -16 -6 -29 -7 -29 -2 0 5
-11 9 -25 9 l-25 0 0 -105z"/>
<path d="M5578 2394 c-17 -9 -32 -28 -39 -53 -21 -70 10 -127 73 -138 48 -7
98 13 98 39 0 15 -4 18 -17 13 -59 -26 -113 -13 -113 26 0 17 8 19 71 19 l71
0 -7 33 c-13 65 -77 94 -137 61z"/>
<path d="M5949 2381 c-24 -24 -29 -38 -29 -76 0 -38 5 -52 29 -76 48 -47 116
-38 146 21 56 108 -62 214 -146 131z"/>
<path d="M6140 2305 l0 -105 25 0 c24 0 25 2 25 74 0 65 3 77 22 90 15 11 26
12 40 5 15 -8 18 -22 18 -89 0 -79 0 -80 26 -80 l26 0 -3 84 c-3 65 -8 89 -23
105 -21 23 -56 27 -87 11 -13 -7 -19 -7 -19 0 0 5 -11 10 -25 10 l-25 0 0
-105z"/>
<path d="M6430 2360 c11 -27 29 -72 40 -100 24 -60 13 -100 -27 -100 -16 0
-23 -6 -23 -20 0 -26 39 -27 69 -2 17 14 111 238 111 265 0 5 -10 7 -22 5 -17
-2 -26 -16 -42 -65 -11 -35 -23 -63 -27 -63 -4 0 -17 29 -29 65 -19 56 -25 65
-46 65 l-24 0 20 -50z"/>
<path d="M6700 2305 l0 -105 25 0 c24 0 25 2 25 74 0 66 3 77 22 90 36 26 48
5 48 -85 0 -72 2 -79 20 -79 18 0 20 7 20 59 0 68 11 106 34 114 31 12 46 -20
46 -99 0 -67 2 -74 20 -74 18 0 20 7 20 85 0 72 -3 88 -20 105 -23 23 -58 26
-85 6 -16 -12 -22 -12 -43 2 -19 12 -30 13 -53 5 -16 -6 -29 -7 -29 -2 0 5
-11 9 -25 9 l-25 0 0 -105z"/>
<path d="M7053 2400 c-14 -6 -23 -18 -23 -30 0 -18 3 -19 20 -10 28 15 75 9
75 -10 0 -9 -14 -17 -37 -21 -48 -8 -78 -34 -78 -70 0 -50 51 -75 101 -49 13
7 19 7 19 0 0 -5 12 -10 26 -10 l27 0 -6 86 c-3 62 -10 90 -22 105 -19 20 -64
24 -102 9z"/>
<path d="M7438 2394 c-17 -9 -32 -28 -39 -53 -21 -70 10 -127 73 -138 48 -7
98 13 98 39 0 15 -4 18 -17 13 -59 -26 -113 -13 -113 26 0 17 8 19 71 19 l71
0 -7 33 c-13 65 -77 94 -137 61z"/>
<path d="M7622 2394 c-43 -30 -25 -72 46 -108 18 -10 31 -23 29 -29 -4 -13
-62 -15 -89 -3 -14 6 -18 3 -18 -13 0 -38 85 -55 128 -25 31 22 30 69 -3 89
-83 50 -78 46 -62 62 14 14 19 14 48 -1 40 -20 39 -20 39 4 0 37 -77 53 -118
24z"/>
<path d="M7850 2305 l0 -105 25 0 c24 0 25 2 25 74 0 66 3 77 22 90 36 26 48
5 48 -85 0 -46 4 -79 10 -79 6 0 10 40 10 100 0 97 -1 100 -24 106 -13 3 -34
1 -45 -6 -14 -7 -21 -7 -21 0 0 5 -11 10 -25 10 l-25 0 0 -105z"/>
<path d="M830 1800 l0 -200 30 0 30 0 0 79 c0 44 4 91 10 105 13 35 46 51 76
37 23 -10 24 -15 24 -116 l0 -105 30 0 30 0 0 109 c0 94 -3 112 -21 135 -16
21 -29 26 -63 26 -23 0 -52 -7 -64 -16 l-22 -15 0 80 0 81 -30 0 -30 0 0 -200z"/>
<path d="M2030 1800 l0 -200 30 0 30 0 0 79 c0 44 4 91 10 105 13 35 46 51 76
37 23 -10 24 -15 24 -116 l0 -105 30 0 30 0 0 109 c0 94 -3 112 -21 135 -16
21 -29 26 -63 26 -23 0 -52 -7 -64 -16 l-22 -15 0 80 0 81 -30 0 -30 0 0 -200z"/>
<path d="M2670 1800 l0 -200 30 0 30 0 0 79 c0 44 4 91 10 105 13 35 46 51 76
37 23 -10 24 -15 24 -116 l0 -105 30 0 30 0 0 109 c0 94 -3 112 -21 135 -16
21 -29 26 -63 26 -23 0 -52 -7 -64 -16 l-22 -15 0 80 0 81 -30 0 -30 0 0 -200z"/>
<path d="M3230 1925 c0 -72 -1 -75 -19 -65 -36 19 -100 12 -126 -14 -22 -22
-45 -81 -45 -116 0 -44 23 -92 53 -110 39 -24 68 -25 107 -5 27 14 30 14 30 0
0 -9 9 -15 25 -15 l25 0 0 200 0 200 -25 0 c-24 0 -25 -2 -25 -75z m-29 -114
c18 -15 23 -28 23 -69 0 -60 -23 -92 -64 -92 -40 0 -55 25 -55 87 0 45 4 58
24 74 29 24 43 24 72 0z"/>
<path d="M5240 1925 c0 -72 -1 -75 -19 -65 -36 19 -100 12 -126 -14 -22 -22
-45 -81 -45 -116 0 -44 23 -92 53 -110 39 -24 68 -25 107 -5 27 14 30 14 30 0
0 -9 9 -15 25 -15 l25 0 0 200 0 200 -25 0 c-24 0 -25 -2 -25 -75z m-29 -114
c18 -15 23 -28 23 -69 0 -60 -23 -92 -64 -92 -40 0 -55 25 -55 87 0 45 4 58
24 74 29 24 43 24 72 0z"/>
<path d="M500 1945 c0 -24 3 -25 60 -25 l60 0 0 -160 0 -160 30 0 30 0 0 160
0 160 60 0 c57 0 60 1 60 25 l0 25 -150 0 -150 0 0 -25z"/>
<path d="M1380 1905 c0 -28 -4 -35 -20 -35 -15 0 -20 -7 -20 -25 0 -18 5 -25
20 -25 18 0 20 -7 20 -82 0 -47 6 -94 13 -108 11 -22 19 -25 62 -25 47 0 50 2
53 28 3 25 1 26 -21 18 -38 -15 -47 4 -47 91 l0 78 35 0 c31 0 35 3 35 25 0
22 -4 25 -35 25 -33 0 -35 2 -35 35 0 32 -2 35 -30 35 -28 0 -30 -3 -30 -35z"/>
<path d="M4800 1905 c0 -28 -4 -35 -20 -35 -15 0 -20 -7 -20 -25 0 -18 5 -25
20 -25 18 0 20 -7 20 -82 0 -47 6 -94 13 -108 11 -22 19 -25 62 -25 47 0 50 2
53 28 3 25 1 26 -21 18 -38 -15 -47 4 -47 91 l0 78 35 0 c31 0 35 3 35 25 0
22 -4 25 -35 25 -33 0 -35 2 -35 35 0 32 -2 35 -30 35 -28 0 -30 -3 -30 -35z"/>
<path d="M5860 1905 c0 -28 -4 -35 -20 -35 -15 0 -20 -7 -20 -25 0 -18 5 -25
20 -25 18 0 20 -7 20 -82 0 -47 6 -94 13 -108 11 -22 19 -25 62 -25 47 0 50 2
53 28 3 25 1 26 -21 18 -38 -15 -47 4 -47 91 l0 78 35 0 c31 0 35 3 35 25 0
22 -4 25 -35 25 -33 0 -35 2 -35 35 0 32 -2 35 -30 35 -28 0 -30 -3 -30 -35z"/>
<path d="M1138 1854 c-19 -10 -28 -23 -28 -39 0 -29 2 -30 41 -9 43 22 93 15
97 -13 3 -19 -1 -23 -21 -23 -83 0 -137 -37 -137 -95 0 -49 28 -75 83 -75 23
0 53 7 65 16 20 14 22 14 22 0 0 -10 9 -16 25 -16 l25 0 0 115 c0 102 -2 117
-20 135 -25 25 -111 27 -152 4z"/>
<path d="M1630 1863 c0 -4 15 -65 33 -136 l32 -128 29 3 c28 3 31 8 57 98 15
52 28 93 29 90 1 -3 13 -45 28 -95 26 -86 28 -90 56 -90 29 0 30 2 57 104 46
170 45 161 11 161 l-30 0 -19 -101 -19 -102 -28 102 c-27 97 -29 101 -57 101
-30 0 -24 11 -73 -159 l-12 -43 -19 101 c-18 100 -19 101 -47 101 -15 0 -28
-3 -28 -7z"/>
<path d="M2310 1735 l0 -135 30 0 30 0 0 135 0 135 -30 0 -30 0 0 -135z"/>
<path d="M2465 1848 c-74 -58 -71 -186 4 -231 32 -19 112 -23 142 -7 12 7 19
21 19 39 l0 28 -39 -19 c-35 -17 -43 -18 -68 -6 -81 39 -59 173 28 170 17 0
41 -8 55 -17 24 -15 24 -15 24 14 0 38 -23 51 -88 51 -35 0 -57 -6 -77 -22z"/>
<path d="M3378 1855 c-36 -20 -63 -91 -53 -142 10 -52 21 -71 58 -93 80 -49
179 -1 187 90 6 69 0 92 -34 126 -30 30 -40 34 -82 34 -27 -1 -61 -7 -76 -15z
m112 -45 c26 -26 28 -114 3 -142 -16 -18 -58 -24 -80 -10 -21 13 -34 65 -28
104 11 62 66 87 105 48z"/>
<path d="M3652 1842 c-37 -35 -46 -66 -40 -134 4 -42 11 -57 37 -80 27 -24 40
-28 89 -28 67 0 102 19 102 56 0 29 3 29 -45 4 -22 -11 -47 -20 -56 -20 -23 0
-65 35 -72 60 -5 19 -1 20 89 20 l94 0 0 35 c0 43 -23 90 -49 105 -11 5 -42
10 -69 10 -41 0 -55 -5 -80 -28z"/>
<path d="M3910 1852 c-16 -13 -23 -29 -22 -50 1 -44 5 -48 73 -82 63 -32 74
-54 35 -71 -19 -9 -33 -7 -70 9 l-46 21 0 -30 c0 -36 27 -49 101 -49 40 0 55
5 74 25 48 47 26 99 -55 134 -42 18 -51 26 -48 44 4 30 31 33 78 8 l40 -21 0
30 c0 24 -6 33 -26 40 -42 16 -109 12 -134 -8z"/>
<path d="M4230 1735 l0 -135 30 0 30 0 0 79 c0 44 4 91 10 105 13 35 50 52 79
37 19 -11 21 -20 21 -116 l0 -105 30 0 30 0 0 109 c0 94 -3 112 -21 135 -16
21 -29 26 -63 26 -23 0 -52 -7 -64 -16 -20 -14 -22 -14 -22 0 0 11 -10 16 -30
16 l-30 0 0 -135z"/>
<path d="M4548 1855 c-36 -20 -63 -91 -53 -142 10 -52 21 -71 58 -93 80 -49
179 -1 187 90 6 69 0 92 -34 126 -30 30 -40 34 -82 34 -27 -1 -61 -7 -76 -15z
m112 -45 c26 -26 28 -114 3 -142 -16 -18 -58 -24 -80 -10 -21 13 -34 65 -28
104 11 62 66 87 105 48z"/>
<path d="M5382 1842 c-37 -35 -46 -66 -40 -134 4 -42 11 -57 37 -80 27 -24 40
-28 89 -28 67 0 102 19 102 56 0 29 3 29 -45 4 -22 -11 -47 -20 -56 -20 -23 0
-65 35 -72 60 -5 19 -1 20 89 20 l94 0 0 35 c0 43 -23 90 -49 105 -11 5 -42
10 -69 10 -41 0 -55 -5 -80 -28z"/>
<path d="M5640 1852 c-16 -13 -23 -29 -22 -50 1 -44 5 -48 73 -82 63 -32 74
-54 35 -71 -19 -9 -33 -7 -70 9 l-46 21 0 -30 c0 -36 27 -49 101 -49 40 0 55
5 74 25 48 47 26 99 -55 134 -42 18 -51 26 -48 44 4 30 31 33 78 8 l40 -21 0
30 c0 24 -6 33 -26 40 -42 16 -109 12 -134 -8z"/>
<path d="M6010 1735 l0 -135 30 0 30 0 0 80 c0 107 17 144 66 138 32 -4 34 -2
34 24 0 25 -4 28 -33 28 -18 0 -39 -6 -46 -12 -11 -10 -14 -10 -18 0 -3 6 -18
12 -34 12 l-29 0 0 -135z"/>
<path d="M6228 1855 c-36 -20 -63 -91 -53 -142 10 -52 21 -71 58 -93 80 -49
179 -1 187 90 6 69 0 92 -34 126 -30 30 -40 34 -82 34 -27 -1 -61 -7 -76 -15z
m112 -45 c26 -26 28 -114 3 -142 -16 -18 -58 -24 -80 -10 -21 13 -34 65 -28
104 11 62 66 87 105 48z"/>
<path d="M6459 1823 c10 -26 33 -84 51 -128 43 -108 32 -165 -32 -165 -25 0
-29 -4 -26 -22 4 -33 57 -37 92 -6 25 22 39 53 127 291 l29 78 -32 -3 c-30 -3
-33 -6 -63 -98 l-32 -95 -18 50 c-54 145 -50 140 -84 143 l-31 3 19 -48z"/>
<path d="M6830 1735 l0 -135 30 0 30 0 0 89 c0 74 3 92 21 115 23 30 41 33 63
10 12 -12 16 -38 16 -115 l0 -99 30 0 30 0 0 100 c0 96 1 100 26 117 19 12 30
14 43 6 13 -8 17 -31 19 -117 l3 -106 30 0 31 0 -4 114 c-2 95 -6 117 -22 135
-26 29 -96 29 -121 1 l-18 -20 -22 20 c-26 25 -81 26 -107 3 -17 -15 -18 -15
-18 0 0 12 -9 17 -30 17 l-30 0 0 -135z"/>
<path d="M7292 1842 c-37 -35 -46 -66 -40 -134 4 -42 11 -57 37 -80 27 -24 40
-28 89 -28 67 0 102 19 102 56 0 29 3 29 -45 4 -22 -11 -47 -20 -56 -20 -23 0
-65 35 -72 60 -5 19 -1 20 89 20 l94 0 0 35 c0 43 -23 90 -49 105 -11 5 -42
10 -69 10 -41 0 -55 -5 -80 -28z"/>
<path d="M7818 1855 c-36 -20 -63 -91 -53 -142 10 -52 21 -71 58 -93 41 -25
93 -25 135 0 l32 20 0 94 c0 90 -1 95 -26 115 -32 25 -105 28 -146 6z m112
-45 c26 -26 28 -114 3 -142 -16 -18 -58 -24 -80 -10 -21 13 -34 65 -28 104 11
62 66 87 105 48z"/>
<path d="M910 1121 l0 -251 35 0 35 0 0 88 c1 144 25 202 85 202 48 0 55 -21
55 -161 l0 -129 40 0 40 0 0 113 c0 168 -20 219 -94 233 -26 4 -47 1 -76 -13
l-39 -20 -3 91 -3 91 -37 3 -38 3 0 -250z"/>
<path d="M2400 1121 l0 -251 35 0 35 0 0 88 c1 144 25 202 85 202 48 0 55 -21
55 -161 l0 -129 40 0 40 0 0 113 c0 168 -20 219 -94 233 -26 4 -47 1 -76 -13
l-39 -20 -3 91 -3 91 -37 3 -38 3 0 -250z"/>
<path d="M3200 1121 l0 -251 35 0 35 0 0 88 c1 144 25 202 85 202 48 0 55 -21
55 -161 l0 -129 40 0 40 0 0 113 c0 168 -20 219 -94 233 -26 4 -47 1 -76 -13
l-39 -20 -3 91 -3 91 -37 3 -38 3 0 -250z"/>
<path d="M3897 1363 c-4 -3 -7 -44 -7 -89 l0 -83 -27 15 c-40 20 -85 17 -124
-9 -49 -32 -69 -79 -69 -160 0 -75 15 -114 56 -146 32 -25 110 -29 140 -6 25
19 34 19 34 0 0 -10 11 -15 35 -15 l35 0 0 250 0 250 -33 0 c-19 0 -37 -3 -40
-7z m-30 -225 c20 -18 23 -31 23 -89 0 -56 -4 -72 -23 -95 -31 -36 -73 -36
-105 2 -21 24 -24 35 -20 90 3 49 9 69 28 89 29 31 66 32 97 3z"/>
<path d="M6407 1363 c-4 -3 -7 -44 -7 -89 l0 -83 -27 15 c-40 20 -85 17 -124
-9 -49 -32 -69 -79 -69 -160 0 -75 15 -114 56 -146 32 -25 110 -29 140 -6 25
19 34 19 34 0 0 -10 11 -15 35 -15 l35 0 0 250 0 250 -33 0 c-19 0 -37 -3 -40
-7z m-30 -225 c20 -18 23 -31 23 -89 0 -56 -4 -72 -23 -95 -31 -36 -73 -36
-105 2 -21 24 -24 35 -20 90 3 49 9 69 28 89 29 31 66 32 97 3z"/>
<path d="M500 1310 l0 -30 75 0 75 0 0 -205 0 -205 35 0 35 0 2 203 3 202 73
3 72 3 0 29 0 30 -185 0 -185 0 0 -30z"/>
<path d="M1600 1250 c0 -36 -2 -40 -25 -40 -21 0 -25 -5 -25 -30 0 -25 4 -30
24 -30 24 0 24 -1 27 -119 5 -142 15 -161 85 -161 60 0 74 8 74 40 0 27 -2 28
-40 23 l-40 -6 0 112 0 111 40 0 c38 0 40 2 40 30 0 28 -2 30 -40 30 l-40 0 0
40 0 40 -40 0 -40 0 0 -40z"/>
<path d="M5870 1250 c0 -36 -2 -40 -25 -40 -21 0 -25 -5 -25 -30 0 -25 4 -30
24 -30 24 0 24 -1 27 -119 5 -142 15 -161 85 -161 60 0 74 8 74 40 0 27 -2 28
-40 23 l-40 -6 0 112 0 111 40 0 c38 0 40 2 40 30 0 28 -2 30 -40 30 l-40 0 0
40 0 40 -40 0 -40 0 0 -40z"/>
<path d="M7180 1250 c0 -36 -2 -40 -25 -40 -21 0 -25 -5 -25 -30 0 -25 4 -30
24 -30 24 0 24 -1 27 -119 5 -142 15 -161 85 -161 60 0 74 8 74 40 0 27 -2 28
-40 23 l-40 -6 0 112 0 111 40 0 c38 0 40 2 40 30 0 28 -2 30 -40 30 l-40 0 0
40 0 40 -40 0 -40 0 0 -40z"/>
<path d="M1308 1199 c-33 -17 -38 -24 -38 -54 l0 -34 46 24 c54 29 96 32 118
9 35 -34 21 -46 -64 -59 -61 -10 -97 -30 -115 -65 -24 -46 -19 -87 14 -121 25
-24 38 -29 79 -29 34 0 57 6 75 20 25 20 25 20 30 0 4 -15 14 -20 37 -20 l31
0 -3 151 -3 151 -28 24 c-37 31 -123 33 -179 3z"/>
<path d="M2975 1201 c-71 -32 -107 -121 -85 -208 20 -84 74 -123 167 -123 75
0 103 18 103 66 l0 35 -29 -20 c-42 -30 -110 -29 -140 3 -47 50 -35 163 19
191 39 20 69 19 108 -5 18 -11 35 -20 37 -20 3 0 5 15 5 34 0 29 -5 36 -34 50
-45 21 -101 20 -151 -3z"/>
<path d="M4125 1213 c-66 -18 -105 -82 -105 -173 0 -69 15 -106 60 -144 41
-34 127 -37 178 -6 70 43 96 190 46 257 -43 57 -115 84 -179 66z m100 -78 c22
-21 25 -33 25 -95 0 -57 -4 -74 -20 -90 -26 -26 -80 -30 -107 -8 -40 32 -40
162 0 198 29 27 72 25 102 -5z"/>
<path d="M4465 1206 c-84 -37 -119 -157 -75 -253 26 -59 69 -83 148 -83 87 0
122 19 122 66 l0 36 -35 -22 c-50 -31 -119 -31 -150 1 -12 13 -26 34 -30 47
-6 22 -6 22 116 22 l122 0 -6 51 c-4 28 -14 65 -24 82 -34 59 -120 83 -188 53z"/>
<path d="M4774 1205 c-30 -16 -54 -51 -54 -80 0 -39 27 -68 92 -101 74 -37 90
-57 65 -81 -22 -22 -81 -18 -124 7 -19 11 -36 20 -39 20 -2 0 -4 -16 -4 -36 0
-31 4 -37 35 -50 19 -7 58 -14 87 -14 96 0 148 56 124 130 -9 30 -22 40 -84
70 -64 31 -73 38 -70 60 4 34 55 39 104 11 19 -12 37 -21 40 -21 2 0 4 15 4
33 0 41 -24 57 -94 63 -35 3 -61 0 -82 -11z"/>
<path d="M5290 1213 c-8 -3 -27 -15 -42 -25 -28 -19 -28 -19 -28 1 0 17 -6 21
-35 21 l-35 0 0 -170 0 -170 35 0 35 0 0 88 c1 144 25 202 85 202 48 0 55 -21
55 -161 l0 -129 41 0 41 0 -4 133 c-3 99 -8 140 -20 163 -23 42 -83 64 -128
47z"/>
<path d="M5595 1213 c-66 -18 -105 -82 -105 -173 0 -69 15 -106 60 -144 41
-34 127 -37 178 -6 70 43 96 190 46 257 -43 57 -115 84 -179 66z m100 -78 c22
-21 25 -33 25 -95 0 -57 -4 -74 -20 -90 -26 -26 -80 -30 -107 -8 -40 32 -40
162 0 198 29 27 72 25 102 -5z"/>
<path d="M6625 1206 c-84 -37 -119 -157 -75 -253 26 -59 69 -83 148 -83 87 0
122 19 122 66 l0 36 -35 -22 c-50 -31 -119 -31 -150 1 -12 13 -26 34 -30 47
-6 22 -6 22 116 22 l122 0 -6 51 c-4 28 -14 65 -24 82 -34 59 -120 83 -188 53z"/>
<path d="M6934 1205 c-30 -16 -54 -51 -54 -80 0 -39 27 -68 92 -101 74 -37 90
-57 65 -81 -22 -22 -81 -18 -124 7 -19 11 -36 20 -39 20 -2 0 -4 -16 -4 -36 0
-31 4 -37 35 -50 19 -7 58 -14 87 -14 96 0 148 56 124 130 -9 30 -22 40 -84
70 -64 31 -73 38 -70 60 4 34 55 39 104 11 19 -12 37 -21 40 -21 2 0 4 15 4
33 0 41 -24 57 -94 63 -35 3 -61 0 -82 -11z"/>
<path d="M7675 1213 c-66 -18 -105 -82 -105 -173 0 -69 15 -106 60 -144 41
-34 127 -37 178 -6 70 43 96 190 46 257 -43 57 -115 84 -179 66z m100 -78 c22
-21 25 -33 25 -95 0 -57 -4 -74 -20 -90 -26 -26 -80 -30 -107 -8 -40 32 -40
162 0 198 29 27 72 25 102 -5z"/>
<path d="M1902 1193 c2 -10 22 -87 44 -170 l39 -153 35 0 35 0 36 127 35 127
36 -125 35 -124 36 -3 c21 -2 37 -1 37 2 0 3 18 74 40 158 22 84 40 159 40
166 0 7 -13 12 -34 12 -38 0 -38 2 -70 -181 l-13 -74 -12 45 c-60 217 -55 205
-94 208 -34 3 -36 1 -46 -35 -35 -126 -60 -207 -61 -203 -1 3 -12 57 -24 120
l-22 115 -38 3 c-33 3 -38 1 -34 -15z"/>
<path d="M2760 1040 l0 -170 35 0 35 0 0 170 0 170 -35 0 -35 0 0 -170z"/>
<path d="M7370 1040 l0 -170 34 0 34 0 3 114 c4 106 6 117 29 141 21 23 31 26
63 21 37 -6 37 -6 37 29 0 35 0 35 -44 35 -26 0 -48 -6 -56 -15 -7 -8 -16 -15
-21 -15 -5 0 -9 7 -9 15 0 10 -11 15 -35 15 l-35 0 0 -170z"/>
<path d="M1000 330 l0 -300 45 0 45 0 0 136 c0 109 3 142 17 164 29 50 88 65
123 30 18 -18 20 -33 20 -175 l0 -155 45 0 45 0 0 155 c0 177 -9 212 -62 245
-42 27 -112 23 -157 -9 l-31 -22 0 115 0 116 -45 0 -45 0 0 -300z"/>
<path d="M2800 330 l0 -300 45 0 45 0 0 136 c0 109 3 142 17 164 29 50 88 65
123 30 18 -18 20 -33 20 -175 l0 -155 45 0 45 0 0 155 c0 177 -9 212 -62 245
-42 27 -112 23 -157 -9 l-31 -22 0 115 0 116 -45 0 -45 0 0 -300z"/>
<path d="M3760 330 l0 -300 45 0 45 0 0 136 c0 109 3 142 17 164 29 50 88 65
123 30 18 -18 20 -33 20 -175 l0 -155 45 0 45 0 0 155 c0 177 -9 212 -62 245
-42 27 -112 23 -157 -9 l-31 -22 0 115 0 116 -45 0 -45 0 0 -300z"/>
<path d="M4590 525 l0 -106 -32 17 c-22 11 -48 15 -85 12 -44 -4 -60 -11 -88
-38 -43 -41 -65 -106 -64 -184 1 -87 25 -142 79 -179 37 -25 130 -23 164 4
l27 21 6 -21 c4 -17 13 -21 44 -21 l39 0 0 300 0 300 -45 0 -45 0 0 -105z
m-29 -174 c27 -28 29 -34 29 -111 0 -77 -2 -83 -29 -111 -39 -38 -88 -40 -121
-4 -32 34 -41 144 -16 197 30 63 90 75 137 29z"/>
<path d="M7600 525 l0 -106 -32 17 c-22 11 -48 15 -85 12 -44 -4 -60 -11 -88
-38 -43 -41 -65 -106 -64 -184 1 -87 25 -142 79 -179 37 -25 130 -23 164 4
l27 21 6 -21 c4 -17 13 -21 44 -21 l39 0 0 300 0 300 -45 0 -45 0 0 -105z
m-29 -174 c27 -28 29 -34 29 -111 0 -77 -2 -83 -29 -111 -39 -38 -88 -40 -121
-4 -32 34 -41 144 -16 197 30 63 90 75 137 29z"/>
<path d="M500 550 l0 -40 90 0 90 0 0 -240 0 -240 45 0 45 0 0 240 0 239 88 3
87 3 3 38 3 37 -225 0 -226 0 0 -40z"/>
<path d="M1830 500 l0 -50 -35 0 c-33 0 -35 -2 -35 -35 0 -33 2 -35 35 -35
l35 0 0 -149 c0 -135 2 -151 21 -175 17 -22 28 -26 74 -26 76 0 85 5 85 50 l0
38 -30 -11 c-58 -22 -65 -7 -68 142 l-3 131 51 0 50 0 0 35 0 35 -50 0 -50 0
0 50 0 50 -40 0 -40 0 0 -50z"/>
<path d="M6960 500 l0 -50 -35 0 c-33 0 -35 -2 -35 -35 0 -33 2 -35 35 -35
l35 0 0 -149 c0 -135 2 -151 21 -175 17 -22 28 -26 74 -26 76 0 85 5 85 50 l0
38 -30 -11 c-58 -22 -65 -7 -68 142 l-3 131 51 0 50 0 0 35 0 35 -50 0 -50 0
0 50 0 50 -40 0 -40 0 0 -50z"/>
<path d="M1533 459 c-23 -4 -55 -15 -72 -24 -28 -14 -31 -20 -31 -60 l0 -44
56 30 c31 16 71 29 88 29 37 0 66 -25 66 -57 0 -18 -10 -23 -72 -33 -84 -14
-118 -29 -146 -65 -43 -54 -36 -145 15 -185 39 -30 129 -28 177 5 l36 24 0
-24 c0 -22 4 -25 40 -25 l40 0 0 165 c0 179 -9 221 -52 248 -31 19 -93 26
-145 16z m107 -256 c0 -40 -21 -74 -57 -92 -70 -36 -131 25 -88 87 17 23 61
40 113 41 31 1 32 -1 32 -36z"/>
<path d="M3495 441 c-79 -36 -115 -101 -115 -206 0 -96 42 -167 113 -194 48
-18 148 -14 185 9 29 18 32 24 32 67 l0 46 -22 -20 c-49 -44 -108 -55 -158
-30 -73 36 -80 190 -11 251 29 26 100 24 145 -3 18 -12 36 -21 40 -21 3 0 6
18 6 40 0 38 -3 42 -42 60 -54 25 -121 25 -173 1z"/>
<path d="M5285 442 c-155 -73 -164 -320 -14 -398 40 -20 155 -18 199 4 31 15
35 22 38 60 2 23 0 42 -3 42 -4 0 -21 -10 -38 -22 -41 -29 -127 -37 -163 -13
-23 15 -54 69 -54 95 0 6 50 10 140 10 l140 0 0 53 c0 66 -33 135 -77 160 -48
27 -120 31 -168 9z"/>
<path d="M5650 444 c-48 -20 -70 -51 -70 -100 0 -56 29 -90 106 -125 92 -42
112 -69 78 -103 -24 -24 -92 -20 -143 9 -23 14 -45 25 -47 25 -2 0 -4 -20 -4
-44 0 -42 2 -45 40 -60 52 -20 152 -21 191 -1 38 20 69 70 69 112 0 46 -40 87
-125 127 -62 29 -75 40 -75 59 0 13 5 28 12 35 25 25 102 7 151 -36 16 -14 17
-12 17 32 0 46 -1 48 -42 66 -51 23 -110 25 -158 4z"/>
<path d="M7875 442 c-93 -43 -140 -149 -115 -260 21 -94 89 -152 180 -152 l50
0 0 35 c0 34 -1 35 -38 35 -21 0 -48 7 -61 16 -21 15 -51 70 -51 94 0 6 30 10
75 10 l75 0 0 35 0 35 -70 0 c-75 0 -79 4 -55 49 16 33 64 55 100 48 25 -4 26
-2 23 32 -3 33 -6 36 -38 39 -19 1 -53 -6 -75 -16z"/>
<path d="M2190 445 c0 -3 23 -98 51 -210 l51 -205 43 0 43 0 43 155 43 156 23
-88 c13 -49 33 -119 44 -156 l20 -68 42 3 42 3 51 200 c28 110 49 203 47 208
-2 4 -22 7 -43 7 -45 0 -41 11 -72 -168 -12 -72 -25 -132 -28 -132 -3 0 -20
57 -39 128 -47 178 -44 172 -85 172 -44 0 -43 1 -91 -174 l-39 -140 -27 147
c-15 80 -30 151 -34 156 -6 11 -85 16 -85 6z"/>
<path d="M4837 429 c-58 -30 -89 -86 -95 -169 -6 -86 14 -146 64 -189 42 -38
68 -45 143 -39 68 5 113 32 141 87 60 118 17 274 -86 317 -47 20 -122 17 -167
-7z m148 -72 c56 -47 52 -217 -6 -247 -24 -13 -75 -13 -101 1 -65 35 -63 232
4 259 39 15 76 11 103 -13z"/>
<path d="M6250 443 c-8 -3 -27 -14 -41 -24 -26 -18 -27 -18 -32 1 -4 16 -14
20 -46 20 l-41 0 0 -205 0 -205 45 0 45 0 0 136 c0 109 3 142 17 164 29 50 88
65 123 30 18 -18 20 -33 20 -175 l0 -155 45 0 45 0 0 155 c0 177 -9 213 -62
245 -31 19 -86 25 -118 13z"/>
<path d="M6587 429 c-58 -30 -89 -86 -95 -169 -6 -86 14 -146 64 -189 42 -38
68 -45 143 -39 68 5 113 32 141 87 60 118 17 274 -86 317 -47 20 -122 17 -167
-7z m148 -72 c56 -47 52 -217 -6 -247 -24 -13 -75 -13 -101 1 -65 35 -63 232
4 259 39 15 76 11 103 -13z"/>
<path d="M3220 235 l0 -205 45 0 45 0 0 205 0 205 -45 0 -45 0 0 -205z"/>
</g>
</svg>
