<?xml version="1.0" standalone="no"?>
<!DOCTYPE svg PUBLIC "-//W3C//DTD SVG 20010904//EN"
 "http://www.w3.org/TR/2001/REC-SVG-20010904/DTD/svg10.dtd">
<svg version="1.0" xmlns="http://www.w3.org/2000/svg"
 width="800.000000pt" height="480.000000pt" viewBox="0 0 800.000000 480.000000"
 preserveAspectRatio="xMidYMid meet">
<metadata>
Created by potrace 1.11, written by Peter Selinger 2001-2013
</metadata>
<g transform="translate(0.000000,480.000000) scale(0.100000,-0.100000)"
fill="#000000" stroke="none">
<path d="M1850 2855 c0 -33 -2 -35 -25 -29 -37 9 -65 -19 -65 -67 0 -49 21
-69 71 -67 l39 1 0 99 c0 59 -4 98 -10 98 -5 0 -10 -16 -10 -35z"/>
<path d="M2840 2855 c0 -33 -2 -35 -25 -29 -37 9 -65 -19 -65 -67 0 -49 21
-69 71 -67 l39 1 0 99 c0 59 -4 98 -10 98 -5 0 -10 -16 -10 -35z"/>
<path d="M6315 2814 c-20 -21 -19 -88 2 -109 11 -11 26 -15 45 -11 18 4 28 1
28 -7 0 -27 -18 -40 -49 -35 -20 3 -30 1 -28 -6 6 -19 57 -19 78 0 16 14 19
31 19 98 l0 82 -40 1 c-24 1 -46 -4 -55 -13z"/>
<path d="M750 2361 c0 -128 2 -151 15 -151 12 0 15 14 15 68 0 77 16 102 62
102 32 0 38 -15 38 -101 0 -55 3 -69 15 -69 12 0 15 14 15 69 0 38 -4 81 -10
95 -12 34 -55 44 -91 23 l-28 -16 -3 61 c-2 38 -8 63 -15 66 -10 3 -13 -31
-13 -147z"/>
<path d="M1640 2361 c0 -128 2 -151 15 -151 12 0 15 14 15 68 0 77 16 102 62
102 32 0 38 -15 38 -101 0 -55 3 -69 15 -69 12 0 15 14 15 69 0 38 -4 81 -10
95 -12 34 -55 44 -91 23 l-28 -16 -3 61 c-2 38 -8 63 -15 66 -10 3 -13 -31
-13 -147z"/>
<path d="M2120 2361 c0 -128 2 -151 15 -151 12 0 15 14 15 68 0 77 16 102 62
102 32 0 38 -15 38 -101 0 -55 3 -69 15 -69 12 0 15 14 15 69 0 38 -4 81 -10
95 -12 34 -55 44 -91 23 l-28 -16 -3 61 c-2 38 -8 63 -15 66 -10 3 -13 -31
-13 -147z"/>
<path d="M2537 2504 c-4 -4 -7 -31 -7 -61 0 -50 -1 -53 -19 -43 -31 16 -58 12
-88 -14 -25 -21 -28 -31 -28 -81 0 -48 4 -60 24 -76 26 -21 62 -24 92 -9 13 7
19 7 19 0 0 -5 9 -10 20 -10 20 0 20 5 18 147 -3 137 -9 168 -31 147z"/>
<path d="M4037 2504 c-4 -4 -7 -31 -7 -61 0 -50 -1 -53 -19 -43 -31 16 -58 12
-88 -14 -25 -21 -28 -31 -28 -81 0 -48 4 -60 24 -76 26 -21 62 -24 92 -9 13 7
19 7 19 0 0 -5 9 -10 20 -10 20 0 20 5 18 147 -3 137 -9 168 -31 147z"/>
<path d="M7230 2361 c0 -128 2 -151 15 -151 11 0 15 12 15 44 0 25 4 47 9 50
5 4 26 -16 46 -44 23 -32 44 -50 57 -50 23 0 24 -1 -39 74 l-33 40 42 43 c35
36 39 43 22 43 -11 0 -38 -18 -59 -41 l-40 -40 -5 87 c-3 57 -9 89 -17 92 -10
3 -13 -31 -13 -147z"/>
<path d="M983 2400 c-13 -5 -23 -16 -23 -25 0 -13 4 -14 20 -5 30 16 84 9 88
-12 3 -14 -6 -19 -38 -24 -51 -8 -90 -38 -90 -69 0 -27 34 -55 65 -55 11 0 31
7 43 16 20 14 22 14 22 0 0 -9 7 -16 15 -16 12 0 15 16 15 84 0 76 -2 86 -22
100 -25 18 -61 20 -95 6z"/>
<path d="M1340 2404 c0 -3 7 -29 14 -57 8 -29 20 -71 26 -94 16 -62 35 -54 60
25 13 37 26 70 29 75 4 4 18 -27 31 -68 31 -100 48 -97 77 10 26 96 27 115 9
115 -9 0 -18 -22 -26 -63 -6 -35 -15 -69 -19 -75 -4 -7 -17 19 -31 63 -30 95
-46 96 -75 3 -12 -37 -24 -70 -27 -73 -3 -3 -9 11 -12 32 -14 78 -27 113 -41
113 -8 0 -15 -3 -15 -6z"/>
<path d="M2634 2387 c-25 -22 -29 -32 -29 -77 0 -44 4 -55 28 -76 38 -32 90
-32 122 1 20 19 25 34 25 73 0 64 -21 91 -76 99 -33 4 -45 1 -70 -20z"/>
<path d="M2860 2397 c-15 -7 -31 -29 -39 -53 -13 -37 -12 -44 5 -80 15 -31 27
-41 57 -48 46 -12 90 2 95 29 3 16 1 18 -9 8 -18 -18 -85 -16 -103 3 -9 8 -16
24 -16 35 0 17 8 19 70 19 68 0 70 1 70 25 0 58 -72 92 -130 62z"/>
<path d="M3504 2387 c-25 -22 -29 -32 -29 -77 0 -44 4 -55 28 -76 38 -32 90
-32 122 1 20 19 25 34 25 73 0 64 -21 91 -76 99 -33 4 -45 1 -70 -20z"/>
<path d="M4150 2397 c-15 -7 -31 -29 -39 -53 -13 -37 -12 -44 5 -80 15 -31 27
-41 57 -48 46 -12 90 2 95 29 3 16 1 18 -9 8 -18 -18 -85 -16 -103 3 -9 8 -16
24 -16 35 0 17 8 19 70 19 68 0 70 1 70 25 0 58 -72 92 -130 62z"/>
<path d="M4764 2387 c-25 -22 -29 -32 -29 -77 0 -44 4 -55 28 -76 38 -32 90
-32 122 1 20 19 25 34 25 73 0 64 -21 91 -76 99 -33 4 -45 1 -70 -20z"/>
<path d="M5230 2310 c0 -82 3 -100 15 -100 12 0 15 14 15 68 0 69 10 94 42
105 33 12 48 -19 48 -99 0 -59 3 -74 15 -74 12 0 15 14 15 68 0 73 4 83 37
100 37 20 53 -7 53 -94 0 -59 3 -74 15 -74 12 0 15 16 15 80 0 67 -3 83 -20
100 -25 25 -62 26 -84 1 -17 -19 -18 -19 -37 0 -23 23 -56 24 -81 2 -17 -15
-18 -15 -18 0 0 10 -7 17 -15 17 -12 0 -15 -18 -15 -100z"/>
<path d="M5580 2397 c-15 -7 -31 -29 -39 -53 -13 -37 -12 -44 5 -80 15 -31 27
-41 57 -48 46 -12 90 2 95 29 3 16 1 18 -9 8 -18 -18 -85 -16 -103 3 -9 8 -16
24 -16 35 0 17 8 19 70 19 68 0 70 1 70 25 0 58 -72 92 -130 62z"/>
<path d="M5954 2387 c-25 -22 -29 -32 -29 -77 0 -44 4 -55 28 -76 38 -32 90
-32 122 1 20 19 25 34 25 73 0 64 -21 91 -76 99 -33 4 -45 1 -70 -20z"/>
<path d="M6710 2310 c0 -82 3 -100 15 -100 12 0 15 14 15 68 0 69 10 94 42
105 33 12 48 -19 48 -99 0 -59 3 -74 15 -74 12 0 15 14 15 68 0 73 4 83 37
100 37 20 53 -7 53 -94 0 -59 3 -74 15 -74 12 0 15 16 15 80 0 67 -3 83 -20
100 -25 25 -62 26 -84 1 -17 -19 -18 -19 -37 0 -23 23 -56 24 -81 2 -17 -15
-18 -15 -18 0 0 10 -7 17 -15 17 -12 0 -15 -18 -15 -100z"/>
<path d="M7053 2400 c-13 -5 -23 -16 -23 -25 0 -13 4 -14 20 -5 30 16 84 9 88
-12 3 -14 -6 -19 -38 -24 -51 -8 -90 -38 -90 -69 0 -27 34 -55 65 -55 11 0 31
7 43 16 20 14 22 14 22 0 0 -9 7 -16 15 -16 12 0 15 16 15 84 0 76 -2 86 -22
100 -25 18 -61 20 -95 6z"/>
<path d="M7440 2397 c-15 -7 -31 -29 -39 -53 -13 -37 -12 -44 5 -80 15 -31 27
-41 57 -48 46 -12 90 2 95 29 3 16 1 18 -9 8 -18 -18 -85 -16 -103 3 -9 8 -16
24 -16 35 0 17 8 19 70 19 68 0 70 1 70 25 0 58 -72 92 -130 62z"/>
<path d="M840 1795 c0 -188 1 -195 20 -195 19 0 20 7 20 90 0 83 2 93 25 115
30 31 80 34 95 6 5 -11 10 -63 10 -115 0 -89 1 -96 20 -96 19 0 20 7 20 104 0
89 -3 107 -21 130 -16 21 -29 26 -63 26 -23 0 -52 -7 -64 -16 l-22 -15 0 80
c0 74 -2 81 -20 81 -19 0 -20 -7 -20 -195z"/>
<path d="M2040 1795 c0 -188 1 -195 20 -195 19 0 20 7 20 90 0 83 2 93 25 115
30 31 80 34 95 6 5 -11 10 -63 10 -115 0 -89 1 -96 20 -96 19 0 20 7 20 104 0
89 -3 107 -21 130 -16 21 -29 26 -63 26 -23 0 -52 -7 -64 -16 l-22 -15 0 80
c0 74 -2 81 -20 81 -19 0 -20 -7 -20 -195z"/>
<path d="M2680 1795 c0 -188 1 -195 20 -195 19 0 20 7 20 90 0 83 2 93 25 115
30 31 80 34 95 6 5 -11 10 -63 10 -115 0 -89 1 -96 20 -96 19 0 20 7 20 104 0
89 -3 107 -21 130 -16 21 -29 26 -63 26 -23 0 -52 -7 -64 -16 l-22 -15 0 80
c0 74 -2 81 -20 81 -19 0 -20 -7 -20 -195z"/>
<path d="M3240 1914 c0 -69 -2 -75 -17 -68 -31 13 -100 16 -122 5 -50 -27 -73
-151 -37 -206 29 -44 101 -59 144 -29 20 14 22 14 22 0 0 -10 9 -16 25 -16
l25 0 0 195 c0 188 -1 195 -20 195 -18 0 -20 -7 -20 -76z m-30 -104 c16 -16
20 -33 20 -79 0 -52 -3 -62 -26 -80 -35 -27 -59 -26 -89 4 -33 32 -35 110 -4
149 25 32 70 35 99 6z"/>
<path d="M5250 1914 c0 -69 -2 -75 -17 -68 -31 13 -100 16 -122 5 -50 -27 -73
-151 -37 -206 29 -44 101 -59 144 -29 20 14 22 14 22 0 0 -10 9 -16 25 -16
l25 0 0 195 c0 188 -1 195 -20 195 -18 0 -20 -7 -20 -76z m-30 -104 c16 -16
20 -33 20 -79 0 -52 -3 -62 -26 -80 -35 -27 -59 -26 -89 4 -33 32 -35 110 -4
149 25 32 70 35 99 6z"/>
<path d="M502 1943 c3 -15 16 -19 66 -21 l62 -3 0 -159 c0 -153 1 -160 20
-160 19 0 20 7 20 160 l0 160 60 0 c53 0 60 2 60 20 0 19 -7 20 -146 20 -133
0 -145 -1 -142 -17z"/>
<path d="M1390 1896 c0 -32 -3 -36 -25 -36 -16 0 -25 -6 -25 -15 0 -9 9 -15
25 -15 l25 0 0 -104 c0 -119 6 -129 72 -124 30 2 44 8 46 19 2 13 -5 16 -35
15 l-38 -1 -3 98 -3 97 36 0 c24 0 35 4 35 15 0 10 -10 15 -34 15 -32 0 -35 3
-38 32 -2 22 -9 34 -20 36 -15 3 -18 -4 -18 -32z"/>
<path d="M4810 1896 c0 -32 -3 -36 -25 -36 -16 0 -25 -6 -25 -15 0 -9 9 -15
25 -15 l25 0 0 -104 c0 -119 6 -129 72 -124 30 2 44 8 46 19 2 13 -5 16 -35
15 l-38 -1 -3 98 -3 97 36 0 c24 0 35 4 35 15 0 10 -10 15 -34 15 -32 0 -35 3
-38 32 -2 22 -9 34 -20 36 -15 3 -18 -4 -18 -32z"/>
<path d="M5870 1896 c0 -32 -3 -36 -25 -36 -16 0 -25 -6 -25 -15 0 -9 9 -15
25 -15 l25 0 0 -104 c0 -119 6 -129 72 -124 30 2 44 8 46 19 2 13 -5 16 -35
15 l-38 -1 -3 98 -3 97 36 0 c24 0 35 4 35 15 0 10 -10 15 -34 15 -32 0 -35 3
-38 32 -2 22 -9 34 -20 36 -15 3 -18 -4 -18 -32z"/>
<path d="M1143 1848 c-13 -6 -23 -19 -23 -30 0 -22 0 -22 36 -3 44 23 81 19
100 -10 9 -14 14 -28 12 -31 -3 -2 -30 -9 -61 -14 -68 -11 -94 -26 -106 -63
-11 -30 -6 -52 17 -79 19 -23 104 -25 122 -3 7 8 16 15 21 15 5 0 9 -7 9 -15
0 -9 9 -15 21 -15 20 0 21 4 17 109 -4 135 -14 151 -92 150 -28 0 -61 -5 -73
-11z"/>
<path d="M1656 1768 c14 -51 29 -110 35 -130 7 -27 15 -38 29 -38 15 0 25 20
51 100 18 54 35 97 39 94 3 -3 19 -47 36 -97 24 -73 35 -93 51 -95 18 -3 23 8
42 80 12 46 28 104 35 131 13 46 13 47 -8 47 -20 0 -24 -9 -40 -89 -10 -48
-21 -93 -25 -99 -4 -7 -22 33 -40 88 -44 136 -58 136 -102 0 -18 -54 -35 -98
-36 -96 -2 2 -14 46 -26 97 -19 80 -26 94 -44 97 l-22 3 25 -93z"/>
<path d="M2474 1841 c-41 -25 -58 -69 -52 -133 7 -72 47 -108 119 -108 57 0
89 13 89 36 0 12 -5 14 -17 8 -45 -19 -89 -16 -119 9 -25 22 -29 32 -29 77 0
45 4 55 29 77 30 25 74 28 119 9 24 -11 23 20 -2 34 -31 16 -103 12 -137 -9z"/>
<path d="M3364 1826 c-30 -30 -34 -40 -34 -85 0 -63 20 -105 60 -126 112 -58
218 56 166 179 -19 47 -51 66 -109 66 -42 0 -54 -5 -83 -34z m135 -15 c64 -64
13 -194 -68 -176 -58 13 -83 115 -40 169 25 32 79 36 108 7z"/>
<path d="M3662 1844 c-32 -22 -52 -67 -52 -114 0 -85 45 -130 128 -130 62 0
92 13 92 40 0 17 -2 18 -27 4 -65 -33 -132 -7 -148 59 l-7 27 96 0 96 0 0 36
c0 55 -44 94 -107 94 -28 0 -58 -7 -71 -16z"/>
<path d="M3912 1844 c-27 -19 -29 -65 -5 -90 10 -9 36 -25 59 -35 55 -25 69
-42 54 -68 -13 -26 -67 -28 -110 -6 -28 15 -30 14 -30 -4 0 -28 29 -41 88 -41
61 0 102 28 102 69 0 33 -17 50 -88 85 -43 22 -53 31 -50 49 2 18 11 23 41 25
23 2 48 -3 63 -13 23 -15 24 -14 24 4 0 11 -9 25 -19 31 -29 15 -104 12 -129
-6z"/>
<path d="M4240 1730 c0 -123 1 -130 20 -130 19 0 20 7 20 90 0 83 2 93 25 115
30 31 80 34 95 6 5 -11 10 -63 10 -115 0 -89 1 -96 20 -96 19 0 20 7 20 104 0
89 -3 107 -21 130 -16 21 -29 26 -63 26 -23 0 -52 -7 -64 -16 -20 -14 -22 -14
-22 0 0 9 -9 16 -20 16 -19 0 -20 -7 -20 -130z"/>
<path d="M4534 1826 c-30 -30 -34 -40 -34 -85 0 -63 20 -105 60 -126 112 -58
218 56 166 179 -19 47 -51 66 -109 66 -42 0 -54 -5 -83 -34z m135 -15 c64 -64
13 -194 -68 -176 -58 13 -83 115 -40 169 25 32 79 36 108 7z"/>
<path d="M5392 1844 c-32 -22 -52 -67 -52 -114 0 -85 45 -130 128 -130 62 0
92 13 92 40 0 17 -2 18 -27 4 -65 -33 -132 -7 -148 59 l-7 27 96 0 96 0 0 36
c0 55 -44 94 -107 94 -28 0 -58 -7 -71 -16z"/>
<path d="M5642 1844 c-27 -19 -29 -65 -5 -90 10 -9 36 -25 59 -35 55 -25 69
-42 54 -68 -13 -26 -67 -28 -110 -6 -28 15 -30 14 -30 -4 0 -28 29 -41 88 -41
61 0 102 28 102 69 0 33 -17 50 -88 85 -43 22 -53 31 -50 49 2 18 11 23 41 25
23 2 48 -3 63 -13 23 -15 24 -14 24 4 0 11 -9 25 -19 31 -29 15 -104 12 -129
-6z"/>
<path d="M6214 1826 c-30 -30 -34 -40 -34 -85 0 -63 20 -105 60 -126 112 -58
218 56 166 179 -19 47 -51 66 -109 66 -42 0 -54 -5 -83 -34z m135 -15 c64 -64
13 -194 -68 -176 -58 13 -83 115 -40 169 25 32 79 36 108 7z"/>
<path d="M6450 1853 c0 -4 23 -63 51 -130 l51 -122 -19 -33 c-12 -21 -31 -37
-51 -43 -38 -11 -37 -29 1 -33 37 -4 78 38 105 108 11 30 38 101 60 158 39 99
40 102 19 102 -19 0 -27 -14 -57 -100 -19 -55 -38 -96 -42 -92 -4 4 -22 48
-42 97 -26 69 -39 91 -55 93 -12 2 -21 0 -21 -5z"/>
<path d="M6840 1730 c0 -123 1 -130 20 -130 18 0 20 7 20 89 0 104 19 141 71
141 39 0 49 -27 49 -141 0 -82 1 -89 20 -89 18 0 20 7 20 89 0 104 19 141 71
141 39 0 49 -27 49 -141 0 -84 1 -89 21 -89 20 0 21 4 17 109 -2 90 -6 113
-22 130 -27 30 -89 29 -121 -3 l-24 -24 -16 24 c-12 19 -24 24 -57 24 -25 0
-49 -7 -60 -17 -17 -15 -18 -15 -18 0 0 10 -8 17 -20 17 -19 0 -20 -7 -20
-130z"/>
<path d="M7302 1844 c-32 -22 -52 -67 -52 -114 0 -85 45 -130 128 -130 62 0
92 13 92 40 0 17 -2 18 -27 4 -65 -33 -132 -7 -148 59 l-7 27 96 0 96 0 0 36
c0 55 -44 94 -107 94 -28 0 -58 -7 -71 -16z"/>
<path d="M7804 1826 c-30 -30 -34 -40 -34 -85 0 -29 7 -65 15 -81 28 -55 105
-76 164 -45 37 19 41 31 41 125 0 73 -2 80 -26 99 -19 15 -41 21 -76 21 -43 0
-54 -4 -84 -34z m135 -15 c64 -64 13 -194 -68 -176 -58 13 -83 115 -40 169 25
32 79 36 108 7z"/>
<path d="M917 1374 c-4 -4 -7 -117 -7 -251 l0 -243 30 0 30 0 0 116 0 116 34
34 c24 24 43 34 65 34 51 0 63 -31 69 -176 5 -122 5 -124 28 -124 24 0 24 2
24 100 0 182 -27 240 -112 240 -40 0 -96 -25 -100 -45 -1 -5 -4 37 -7 95 -6
96 -8 105 -26 108 -12 2 -24 0 -28 -4z"/>
<path d="M2407 1374 c-4 -4 -7 -117 -7 -251 l0 -243 30 0 30 0 0 116 0 116 34
34 c24 24 43 34 65 34 51 0 63 -31 69 -176 5 -122 5 -124 28 -124 24 0 24 2
24 100 0 182 -27 240 -112 240 -40 0 -96 -25 -100 -45 -1 -5 -4 37 -7 95 -6
96 -8 105 -26 108 -12 2 -24 0 -28 -4z"/>
<path d="M3207 1374 c-4 -4 -7 -117 -7 -251 l0 -243 30 0 30 0 0 116 0 116 34
34 c24 24 43 34 65 34 51 0 63 -31 69 -176 5 -122 5 -124 28 -124 24 0 24 2
24 100 0 182 -27 240 -112 240 -40 0 -96 -25 -100 -45 -1 -5 -4 37 -7 95 -6
96 -8 105 -26 108 -12 2 -24 0 -28 -4z"/>
<path d="M3910 1279 l0 -100 -29 20 c-43 31 -111 28 -152 -6 -41 -35 -59 -79
-59 -148 0 -109 46 -165 134 -165 30 0 61 6 74 16 20 14 22 14 22 0 0 -11 10
-16 30 -16 l30 0 0 250 0 250 -25 0 -25 0 0 -101z m-42 -124 c51 -43 54 -158
6 -210 -33 -36 -98 -32 -127 6 -41 57 -31 169 20 209 34 27 65 25 101 -5z"/>
<path d="M6420 1279 l0 -100 -29 20 c-43 31 -111 28 -152 -6 -41 -35 -59 -79
-59 -148 0 -109 46 -165 134 -165 30 0 61 6 74 16 20 14 22 14 22 0 0 -11 10
-16 30 -16 l30 0 0 250 0 250 -25 0 -25 0 0 -101z m-42 -124 c51 -43 54 -158
6 -210 -33 -36 -98 -32 -127 6 -41 57 -31 169 20 209 34 27 65 25 101 -5z"/>
<path d="M502 1318 c3 -21 9 -23 81 -26 l77 -3 0 -204 0 -205 25 0 25 0 0 205
0 204 78 3 c71 3 77 5 80 26 l3 22 -186 0 -186 0 3 -22z"/>
<path d="M1610 1260 c0 -38 -2 -40 -30 -40 -23 0 -30 -4 -30 -20 0 -16 7 -20
30 -20 l30 0 0 -128 c0 -162 6 -174 88 -170 50 3 57 6 60 25 3 20 -1 21 -45
20 l-48 -2 -3 128 -3 127 46 0 c38 0 45 3 45 20 0 17 -7 20 -45 20 l-45 0 0
40 c0 36 -2 40 -25 40 -22 0 -25 -4 -25 -40z"/>
<path d="M5880 1260 c0 -38 -2 -40 -30 -40 -23 0 -30 -4 -30 -20 0 -16 7 -20
30 -20 l30 0 0 -128 c0 -162 6 -174 88 -170 50 3 57 6 60 25 3 20 -1 21 -45
20 l-48 -2 -3 128 -3 127 46 0 c38 0 45 3 45 20 0 17 -7 20 -45 20 l-45 0 0
40 c0 36 -2 40 -25 40 -22 0 -25 -4 -25 -40z"/>
<path d="M7190 1260 c0 -38 -2 -40 -30 -40 -23 0 -30 -4 -30 -20 0 -16 7 -20
30 -20 l30 0 0 -128 c0 -162 6 -174 88 -170 50 3 57 6 60 25 3 20 -1 21 -45
20 l-48 -2 -3 128 -3 127 46 0 c38 0 45 3 45 20 0 17 -7 20 -45 20 l-45 0 0
40 c0 36 -2 40 -25 40 -22 0 -25 -4 -25 -40z"/>
<path d="M1325 1215 c-22 -8 -41 -15 -42 -15 -2 0 -3 -13 -3 -30 l0 -30 33 20
c44 27 122 27 137 1 23 -45 14 -58 -47 -66 -112 -14 -153 -46 -153 -123 0 -63
32 -92 101 -92 35 0 60 6 80 21 l29 20 0 -20 c0 -16 6 -21 25 -21 l25 0 0 144
c0 137 -1 146 -23 172 -29 33 -101 42 -162 19z m135 -196 c0 -78 -90 -129
-140 -79 -54 54 4 113 118 119 19 1 22 -4 22 -40z"/>
<path d="M4769 1215 c-35 -19 -53 -63 -40 -97 10 -28 62 -72 98 -82 33 -10 73
-46 73 -65 0 -47 -68 -65 -137 -36 -46 20 -53 19 -53 -5 0 -29 50 -50 119 -50
49 0 65 4 90 26 24 20 31 34 31 63 0 50 -14 67 -96 110 -51 26 -70 42 -72 59
-8 52 52 68 121 33 l37 -19 0 25 c0 45 -112 70 -171 38z"/>
<path d="M6929 1215 c-35 -19 -53 -63 -40 -97 10 -28 62 -72 98 -82 33 -10 73
-46 73 -65 0 -47 -68 -65 -137 -36 -46 20 -53 19 -53 -5 0 -29 50 -50 119 -50
49 0 65 4 90 26 24 20 31 34 31 63 0 50 -14 67 -96 110 -51 26 -70 42 -72 59
-8 52 52 68 121 33 l37 -19 0 25 c0 45 -112 70 -171 38z"/>
<path d="M1910 1203 c0 -9 14 -68 31 -132 17 -64 35 -133 40 -153 8 -31 14
-38 34 -38 22 0 27 11 67 136 l43 137 45 -137 c42 -129 46 -137 69 -134 22 3
27 14 66 165 24 89 40 164 37 167 -3 4 -13 6 -23 6 -20 0 -22 -7 -59 -175
l-23 -99 -44 138 c-40 124 -46 137 -66 134 -18 -3 -28 -23 -62 -125 -22 -67
-43 -124 -46 -127 -3 -3 -16 42 -29 102 -12 59 -26 117 -31 130 -10 26 -49 31
-49 5z"/>
<path d="M2975 1201 c-16 -10 -37 -27 -47 -37 -24 -28 -41 -102 -34 -147 15
-95 65 -137 161 -137 67 0 105 18 105 51 0 23 0 23 -36 4 -51 -26 -101 -20
-140 19 -30 30 -34 40 -34 85 0 114 80 173 170 126 29 -15 30 -15 30 10 0 18
-7 28 -26 35 -42 16 -116 12 -149 -9z"/>
<path d="M4093 1200 c-89 -54 -96 -224 -12 -295 25 -20 41 -25 87 -25 104 0
152 54 152 172 0 73 -21 117 -72 148 -43 26 -113 26 -155 0z m122 -30 c70 -26
74 -203 6 -240 -11 -5 -35 -10 -53 -10 -63 1 -88 39 -88 135 0 60 3 69 29 96
31 30 61 36 106 19z"/>
<path d="M4464 1206 c-110 -48 -124 -244 -21 -306 23 -14 50 -20 94 -20 77 0
113 15 113 47 0 27 -6 28 -40 8 -29 -17 -88 -19 -124 -5 -27 10 -56 56 -56 90
0 19 6 20 121 20 l122 0 -6 45 c-4 25 -13 58 -21 74 -28 53 -115 76 -182 47z"/>
<path d="M5270 1213 c-8 -3 -25 -15 -37 -26 l-23 -20 0 21 c0 18 -6 22 -30 22
l-30 0 0 -165 0 -165 30 0 30 0 0 116 0 116 34 34 c39 39 83 45 111 14 14 -15
18 -44 23 -150 5 -128 5 -130 28 -130 24 0 24 1 24 108 -1 131 -11 180 -45
210 -25 21 -78 28 -115 15z"/>
<path d="M5563 1200 c-89 -54 -96 -224 -12 -295 25 -20 41 -25 87 -25 104 0
152 54 152 172 0 73 -21 117 -72 148 -43 26 -113 26 -155 0z m122 -30 c70 -26
74 -203 6 -240 -11 -5 -35 -10 -53 -10 -63 1 -88 39 -88 135 0 60 3 69 29 96
31 30 61 36 106 19z"/>
<path d="M6624 1206 c-110 -48 -124 -244 -21 -306 23 -14 50 -20 94 -20 77 0
113 15 113 47 0 27 -6 28 -40 8 -29 -17 -88 -19 -124 -5 -27 10 -56 56 -56 90
0 19 6 20 121 20 l122 0 -6 45 c-4 25 -13 58 -21 74 -28 53 -115 76 -182 47z"/>
<path d="M7485 1209 c-11 -6 -26 -19 -32 -27 -11 -14 -13 -13 -13 6 0 18 -6
22 -30 22 l-30 0 0 -165 0 -165 30 0 30 0 0 110 c0 151 15 180 97 180 30 0 34
3 31 23 -2 16 -10 23 -33 24 -16 2 -39 -2 -50 -8z"/>
<path d="M7643 1200 c-89 -54 -96 -224 -12 -295 25 -20 41 -25 87 -25 104 0
152 54 152 172 0 73 -21 117 -72 148 -43 26 -113 26 -155 0z m122 -30 c70 -26
74 -203 6 -240 -11 -5 -35 -10 -53 -10 -63 1 -88 39 -88 135 0 60 3 69 29 96
31 30 61 36 106 19z"/>
<path d="M2770 1045 l0 -165 25 0 25 0 0 165 0 165 -25 0 -25 0 0 -165z"/>
<path d="M1000 325 l0 -295 35 0 35 0 0 131 c0 77 5 139 11 152 32 61 95 91
144 69 34 -16 45 -67 45 -219 l0 -133 31 0 31 0 -4 158 c-3 126 -7 163 -21
189 -40 74 -147 84 -214 21 l-23 -21 0 121 0 122 -35 0 -35 0 0 -295z"/>
<path d="M2800 325 l0 -295 35 0 35 0 0 131 c0 77 5 139 11 152 32 61 95 91
144 69 34 -16 45 -67 45 -219 l0 -133 31 0 31 0 -4 158 c-3 126 -7 163 -21
189 -40 74 -147 84 -214 21 l-23 -21 0 121 0 122 -35 0 -35 0 0 -295z"/>
<path d="M3760 325 l0 -295 35 0 35 0 0 131 c0 77 5 139 11 152 32 61 95 91
144 69 34 -16 45 -67 45 -219 l0 -133 31 0 31 0 -4 158 c-3 126 -7 163 -21
189 -40 74 -147 84 -214 21 l-23 -21 0 121 0 122 -35 0 -35 0 0 -295z"/>
<path d="M4610 504 l0 -115 -31 22 c-66 47 -163 32 -212 -33 -72 -93 -54 -281
31 -330 43 -26 141 -24 175 2 25 20 25 20 30 0 4 -15 14 -20 36 -20 l31 0 0
295 0 295 -30 0 -30 0 0 -116z m-47 -141 c48 -43 61 -145 28 -220 -22 -47 -48
-65 -96 -65 -72 0 -105 45 -105 145 0 83 15 124 54 148 36 23 88 20 119 -8z"/>
<path d="M7620 504 l0 -115 -31 22 c-66 47 -163 32 -212 -33 -72 -93 -54 -281
31 -330 43 -26 141 -24 175 2 25 20 25 20 30 0 4 -15 14 -20 36 -20 l31 0 0
295 0 295 -30 0 -30 0 0 -116z m-47 -141 c48 -43 61 -145 28 -220 -22 -47 -48
-65 -96 -65 -72 0 -105 45 -105 145 0 83 15 124 54 148 36 23 88 20 119 -8z"/>
<path d="M500 555 c0 -25 0 -25 95 -25 l95 0 0 -250 0 -250 30 0 30 0 2 247 3
248 93 3 c90 3 92 3 92 27 l0 25 -220 0 -220 0 0 -25z"/>
<path d="M1830 480 l0 -50 -35 0 c-31 0 -35 -3 -35 -25 0 -22 4 -25 34 -25
l35 0 3 -156 c3 -150 4 -157 27 -175 16 -13 39 -19 71 -19 64 0 80 7 80 36 0
22 -3 23 -45 17 -72 -9 -75 -3 -75 158 l0 139 50 0 c47 0 50 2 50 25 0 23 -3
25 -50 25 l-50 0 0 50 c0 49 -1 50 -30 50 -29 0 -30 -1 -30 -50z"/>
<path d="M6960 480 l0 -50 -35 0 c-31 0 -35 -3 -35 -25 0 -22 4 -25 34 -25
l35 0 3 -156 c3 -150 4 -157 27 -175 16 -13 39 -19 71 -19 64 0 80 7 80 36 0
22 -3 23 -45 17 -72 -9 -75 -3 -75 158 l0 139 50 0 c47 0 50 2 50 25 0 23 -3
25 -50 25 l-50 0 0 50 c0 49 -1 50 -30 50 -29 0 -30 -1 -30 -50z"/>
<path d="M1495 428 c-44 -16 -55 -27 -55 -59 l0 -28 46 24 c82 44 155 31 170
-30 9 -36 0 -42 -68 -50 -128 -14 -183 -59 -183 -148 0 -42 4 -52 33 -78 28
-25 40 -29 90 -29 57 0 92 14 120 48 10 13 12 11 12 -16 0 -29 3 -32 31 -32
l30 0 -3 176 -3 176 -33 29 c-29 26 -39 29 -95 28 -34 0 -75 -5 -92 -11z m150
-287 c-43 -84 -175 -80 -175 5 0 52 34 81 106 89 33 4 64 8 69 9 17 5 17 -71
0 -103z"/>
<path d="M3495 421 c-73 -33 -105 -93 -105 -194 0 -127 70 -197 194 -197 81 0
110 16 114 60 4 34 4 35 -17 16 -13 -12 -41 -21 -75 -24 -98 -8 -150 43 -150
148 0 127 100 195 207 141 l37 -19 0 30 c0 24 -6 32 -35 44 -47 19 -122 17
-170 -5z"/>
<path d="M4839 417 c-62 -33 -92 -94 -91 -187 0 -82 27 -141 81 -177 42 -28
135 -32 187 -7 94 45 125 237 52 329 -49 63 -153 82 -229 42z m135 -37 c43
-16 66 -66 66 -142 0 -114 -31 -158 -111 -158 -80 0 -119 51 -119 157 0 114
73 178 164 143z"/>
<path d="M5273 421 c-65 -31 -97 -87 -101 -180 -3 -65 0 -83 21 -121 33 -64
83 -90 170 -90 37 0 83 7 102 14 29 13 35 20 35 46 l0 30 -40 -20 c-59 -30
-140 -28 -179 6 -25 21 -51 74 -51 107 0 4 66 7 146 7 l146 0 -4 60 c-5 64
-23 98 -71 134 -38 28 -121 32 -174 7z m138 -44 c19 -14 34 -42 43 -79 l6 -28
-115 0 -115 0 15 38 c23 55 58 82 108 82 23 0 49 -6 58 -13z"/>
<path d="M5643 426 c-45 -20 -67 -58 -60 -102 8 -49 20 -60 101 -101 86 -43
106 -59 106 -88 0 -55 -87 -73 -174 -35 l-46 19 0 -30 c0 -43 49 -62 147 -57
67 3 76 6 105 36 26 25 33 40 33 72 0 51 -21 71 -122 124 -66 35 -78 45 -81
69 -2 16 2 35 9 43 17 20 88 17 134 -6 22 -11 41 -20 42 -20 2 0 3 13 3 28 0
22 -7 32 -27 41 -43 20 -133 24 -170 7z"/>
<path d="M6225 426 c-17 -7 -37 -21 -45 -31 -14 -17 -15 -16 -20 6 -5 19 -13
24 -35 24 l-30 0 -3 -197 -2 -198 35 0 35 0 0 131 c0 77 5 139 11 152 32 61
95 91 144 69 34 -16 45 -67 45 -219 l0 -133 30 0 30 0 0 148 c0 123 -4 154
-19 189 -31 66 -103 91 -176 59z"/>
<path d="M6589 417 c-62 -33 -92 -94 -91 -187 0 -82 27 -141 81 -177 42 -28
135 -32 187 -7 94 45 125 237 52 329 -49 63 -153 82 -229 42z m135 -37 c43
-16 66 -66 66 -142 0 -114 -31 -158 -111 -158 -80 0 -119 51 -119 157 0 114
73 178 164 143z"/>
<path d="M7863 421 c-65 -30 -97 -87 -101 -180 -3 -65 0 -83 21 -121 31 -59
84 -90 155 -90 49 0 52 1 52 25 0 23 -4 25 -44 25 -33 0 -52 7 -75 26 -25 21
-51 74 -51 107 0 4 38 7 85 7 84 0 85 0 85 25 0 25 -1 25 -85 25 l-85 0 15 38
c23 56 58 82 111 82 40 0 44 2 44 25 0 23 -4 25 -42 25 -24 0 -62 -9 -85 -19z"/>
<path d="M2200 421 c0 -5 18 -79 41 -163 22 -84 45 -170 50 -190 8 -33 14 -38
39 -38 29 0 30 2 76 148 26 81 50 150 54 155 3 4 29 -61 56 -145 49 -151 50
-153 80 -156 l31 -3 46 178 c59 230 58 217 25 221 -22 3 -28 -2 -33 -20 -3
-13 -18 -81 -35 -152 -16 -70 -31 -130 -33 -132 -2 -3 -26 64 -54 148 -48 151
-49 153 -78 153 -29 0 -30 -2 -76 -148 -26 -82 -49 -151 -52 -153 -3 -3 -19
57 -37 133 -17 76 -34 146 -36 156 -6 18 -64 25 -64 8z"/>
<path d="M3240 230 l0 -200 30 0 30 0 0 200 0 200 -30 0 -30 0 0 -200z"/>
</g>
</svg>
